<?xml version="1.0" encoding="utf-8"?>
<!-- Generator: Adobe Illustrator 28.1.0, SVG Export Plug-In . SVG Version: 6.00 Build 0)  -->
<svg version="1.1" id="Layer_1" xmlns="http://www.w3.org/2000/svg" xmlns:xlink="http://www.w3.org/1999/xlink" x="0px" y="0px"
	 viewBox="0 0 1128.51 520.85" style="enable-background:new 0 0 1128.51 520.85;" xml:space="preserve">
<style type="text/css">
	.st0{fill:#EBC886;}
</style>
<path class="st0" d="M547.62,52.34v58.86L527,101.55V52.34h-93.37v207h2.23c29.61,20.23,59.21,40.45,88.82,60.68
	c0.15,0.1,0.3,0.2,0.45,0.31c0.52,0.35,1.03,0.7,1.55,1.06c3.36,2.29,6.73,4.59,10.09,6.89l9.31-6.33l2.05-1.39l90.02-61.22h2.48
	v-207C640.63,52.34,547.62,52.34,547.62,52.34z M463.34,228.36l-21.5-0.06l0.46-156l21.46,12.06L463.34,228.36z M547.62,314.06
	l-1.93,1.48l-8.75,6.74c-3.16-2.45-6.33-4.9-9.49-7.33c-0.49-0.38-0.97-0.76-1.46-6.48v-59.26l21.62,8.41v56.44H547.62z
	 M541.49,199.49l-9.08-10.5l-63.44-67.57l-0.48-31.25l71.88,76.01l65.12-78.86l0.33,31.21L541.49,199.49z M612.03,228.57
	l-1.92-143.99l21.33-12.29l2.08,155.99L612.03,228.57z"/>
<g>
	<path class="st0" d="M66.77,375.31c1.52,3.63,4.34,9.39,8.45,17.27c4.11,7.88,8.17,15.88,12.19,23.99
		c4.02,8.12,8.55,16.66,13.6,25.62c4.05,7.09,6.34,11.25,6.87,12.48c14.68-32.87,25.79-59.33,33.34-79.37
		c14.07,0,27.05-0.35,38.95-1.05c1.12-0.06,1.94-0.09,2.46-0.09c2.4,0,3.61,0.94,3.61,2.81c0,1.64-0.94,2.46-2.81,2.46
		c-6.68,0-11.06,2.27-13.14,6.81c-2.08,4.54-3.12,15.6-3.12,33.18l-0.09,43.07c0,8.79,1.16,14.94,3.47,18.46s6.08,5.36,11.29,5.54
		c2.52,0.06,3.78,0.91,3.78,2.55c0,0.88-0.53,1.61-1.58,2.2l-24.66-0.18c-7.55,0-17.87,0.29-30.98,0.88
		c-1.11-0.76-1.67-1.58-1.67-2.46c0-1.35,1.51-2.25,4.55-2.72c3.09-0.53,5.32-1.29,6.69-2.29s2.4-2.84,3.1-5.54
		c0.7-2.7,1.05-6.66,1.05-11.88l0.35-39.32c0-20.12,0.03-31.7,0.09-34.75c-15.91,37.03-25.77,60.67-29.57,70.93l-8.86,23.82
		c-1,2.52-2,3.78-2.99,3.78c-1.06,0-2.32-1.55-3.78-4.66c-4.28-9.02-19.56-38.82-45.84-89.38c-0.29,14.55-0.44,34.17-0.44,58.86
		c0,13.02,0.73,21.25,2.2,24.68c1.46,3.43,5.57,5.44,12.3,6.03c2.23,0.23,3.34,1.05,3.34,2.46c0,1.52-0.91,2.29-2.72,2.29
		c-0.65,0-1.35-0.03-2.11-0.1c-7.03-0.52-12.07-0.78-15.12-0.78c-8.32,0-14.62,0.29-18.9,0.88c-0.82,0.12-1.44,0.18-1.85,0.18
		c-2.05,0-3.08-0.85-3.08-2.55c0-0.82,0.25-1.39,0.75-1.71c0.5-0.32,1.83-0.72,4-1.19c5.62-1.05,9.3-3.08,11.03-6.07
		c1.73-2.99,2.59-7.89,2.59-14.69l0.44-50.23c0-11.43-0.29-19-0.88-22.69c-0.59-3.69-2.02-6.54-4.31-8.53s-6.01-3.49-11.16-4.49
		c-1.93-0.41-2.9-1.38-2.9-2.9c0-1.64,1.05-2.46,3.16-2.46c0.47,0,1.11,0.03,1.93,0.1C35.75,375.05,48.08,375.31,66.77,375.31z"/>
	<path class="st0" d="M199.23,374.6c2.05,0,6.27,0.16,12.66,0.49c4.86,0.26,8.73,0.39,11.6,0.39l26.98-0.7
		c2.29,0,3.43,0.79,3.43,2.37c0,1.41-1.03,2.23-3.08,2.46c-4.63,0.47-7.72,1.33-9.27,2.59c-1.55,1.26-2.75,4.17-3.6,8.74
		c-0.85,4.57-1.27,14.9-1.27,31c0,18.5,0.29,32.8,0.88,42.9c0.58,10.1,1.77,16.34,3.56,18.71c1.79,2.37,4.76,3.56,8.92,3.56
		c2.87,0,4.31,0.76,4.31,2.29c0,2.05-1.55,3.08-4.66,3.08c-0.88,0-2.17-0.03-3.87-0.09c-11.02-0.76-18.54-1.14-22.59-1.14
		c-8.85,0-15.38,0.26-19.6,0.79c-2.23,0.23-3.81,0.35-4.75,0.35c-2.17,0-3.25-0.85-3.25-2.55c0-1.35,0.91-2.14,2.72-2.37
		c4.98-0.64,8.33-2.04,10.06-4.17c1.73-2.14,2.77-7.28,3.12-15.42c0.35-8.14,0.53-20.8,0.53-37.97c0-18.11-0.32-30.22-0.97-36.34
		c-0.65-6.12-1.71-9.89-3.21-11.29s-4.35-2.29-8.57-2.64c-2.23-0.18-3.34-1.08-3.34-2.72C195.98,375.36,197.06,374.6,199.23,374.6z"
		/>
	<path class="st0" d="M363.06,492.02c-14.65-0.76-37.44-1.14-68.38-1.14c-10.78,0-19.54,0.32-26.28,0.97
		c-1.64,0.12-2.84,0.18-3.6,0.18c-2.23,0-3.34-0.88-3.34-2.64c0-0.82,0.29-1.39,0.88-1.71c0.58-0.32,2.02-0.66,4.31-1.01
		c3.63-0.53,6.42-1.6,8.35-3.21c1.93-1.61,3.3-4.02,4.09-7.22c0.79-3.2,1.24-11.36,1.36-24.47c0.12-13.12,0.18-28.71,0.18-46.79
		c0-7.22-0.53-12.46-1.58-15.71s-2.56-5.63-4.53-7.13c-1.96-1.5-4.73-2.33-8.31-2.51c-2.52-0.12-3.78-1.05-3.78-2.81
		s1.44-2.64,4.31-2.64l29.18,0.88c4.51,0,10.81-0.23,18.9-0.68c2.93-0.13,4.92-0.2,5.98-0.2c2.46,0,3.69,0.85,3.69,2.55
		c0,0.94-0.4,1.6-1.19,1.98c-0.79,0.38-2.77,0.81-5.93,1.28c-3.93,0.53-6.69,1.53-8.31,2.99c-1.61,1.47-2.7,4.02-3.25,7.66
		c-0.56,3.64-0.83,11.8-0.83,24.47v53.44c0.06,8.22,0.79,13.1,2.2,14.66c1.41,1.56,4.07,2.33,8,2.33c9.61,0,16.77-0.75,21.46-2.24
		s9.16-4.2,13.41-8.13c4.25-3.92,8.81-10.52,13.67-19.78c0.99-1.88,2.01-2.81,3.06-2.81c1.57,0,2.36,0.85,2.36,2.55
		C369.12,458.92,367.1,471.22,363.06,492.02z"/>
	<path class="st0" d="M475.56,492.02c-14.65-0.76-37.44-1.14-68.38-1.14c-10.78,0-19.54,0.32-26.28,0.97
		c-1.64,0.12-2.84,0.18-3.6,0.18c-2.23,0-3.34-0.88-3.34-2.64c0-0.82,0.29-1.39,0.88-1.71c0.58-0.32,2.02-0.66,4.31-1.01
		c3.63-0.53,6.42-1.6,8.35-3.21c1.93-1.61,3.3-4.02,4.09-7.22c0.79-3.2,1.24-11.36,1.36-24.47c0.12-13.12,0.18-28.71,0.18-46.79
		c0-7.22-0.53-12.46-1.58-15.71s-2.56-5.63-4.53-7.13c-1.96-1.5-4.73-2.33-8.31-2.51c-2.52-0.12-3.78-1.05-3.78-2.81
		s1.44-2.64,4.31-2.64l29.18,0.88c4.51,0,10.81-0.23,18.9-0.68c2.93-0.13,4.92-0.2,5.98-0.2c2.46,0,3.69,0.85,3.69,2.55
		c0,0.94-0.4,1.6-1.19,1.98c-0.79,0.38-2.77,0.81-5.93,1.28c-3.93,0.53-6.69,1.53-8.31,2.99c-1.61,1.47-2.7,4.02-3.25,7.66
		c-0.56,3.64-0.83,11.8-0.83,24.47v53.44c0.06,8.22,0.79,13.1,2.2,14.66c1.41,1.56,4.07,2.33,8,2.33c9.61,0,16.77-0.75,21.46-2.24
		s9.16-4.2,13.41-8.13c4.25-3.92,8.81-10.52,13.67-19.78c0.99-1.88,2.01-2.81,3.06-2.81c1.57,0,2.36,0.85,2.36,2.55
		C481.62,458.92,479.6,471.22,475.56,492.02z"/>
	<path class="st0" d="M585.33,375.74c1.88,9.14,3.72,18.28,5.54,27.42c0,1.7-0.85,2.55-2.54,2.55c-0.93,0-1.98-0.82-3.15-2.45
		c-6.04-8.76-11.56-14.54-16.58-17.34c-5.01-2.8-12.24-4.2-21.68-4.2c-5.28,0-10.38,0.44-15.3,1.32
		c-1.06,10.35-1.58,21.7-1.58,34.04c0,2.11,0.06,5.64,0.18,10.61l6.68,0.09c4.16,0,7.75-0.57,10.77-1.71
		c3.02-1.14,5.58-3.57,7.69-7.29c2.11-3.72,3.31-6.11,3.6-7.16c0.53-1.88,1.44-2.81,2.72-2.81c1.64,0,2.46,0.7,2.46,2.11
		c0,0.41-0.06,0.88-0.18,1.41c-0.7,3.63-1.05,14.5-1.05,32.61c0,2.52,0.23,4.8,0.68,6.86c0.13,0.59,0.2,1.08,0.2,1.49
		c0,1.64-0.94,2.46-2.81,2.46c-1.29,0-2.29-1.55-2.99-4.66c-1.18-5.45-3.85-9.59-8.02-12.44c-4.17-2.84-10.76-4.32-19.75-4.44
		c-0.29,9.84-0.44,16.32-0.44,19.42c0,13.36,0.21,21.3,0.62,23.82c0.41,2.52,1.9,4.56,4.48,6.11c2.58,1.55,6.95,2.33,13.1,2.33
		c22.33,0,37.02-7.09,44.05-21.27c0.99-1.99,2.07-2.99,3.24-2.99c1.69,0,2.54,0.7,2.54,2.11c0,0.94-0.18,2.14-0.53,3.6l-5.71,25.22
		l-31.82-0.09c-8.96-0.06-17.33-0.26-25.09-0.62c-7.76-0.35-13.84-0.53-18.24-0.53c-4.92,0-12.33,0.29-22.24,0.88
		c-1.23,0.12-2.14,0.18-2.72,0.18c-2.75,0-4.13-0.91-4.13-2.72c0-1.64,1.11-2.46,3.34-2.46c5.68,0,9.51-1.54,11.47-4.61
		c1.96-3.07,2.94-9.35,2.94-18.84l0.53-45.23c0-15.46-0.19-24.95-0.57-28.5c-0.38-3.54-1.39-5.94-3.03-7.2
		c-1.64-1.26-4.72-2.21-9.23-2.85c-1.88-0.23-2.81-1.05-2.81-2.46c0-1.76,1.08-2.64,3.25-2.64l21.18,0.64L585.33,375.74z"/>
	<path class="st0" d="M638.78,374.78c28.06,31.93,51.47,57.54,70.21,76.82c0.06-3.98,0.09-6.55,0.09-7.72l0.09-34.76
		c0-8.19-0.47-14.06-1.41-17.6c-0.94-3.54-2.93-6.33-5.98-8.38c-3.05-2.05-6.59-3.25-10.63-3.6c-2.17-0.23-3.25-1.14-3.25-2.72
		c0-1.7,1-2.55,2.99-2.55c1.11,0,2.55,0.11,4.31,0.32c3.34,0.37,8.23,0.56,14.68,0.56c8.09,0,14.24-0.21,18.46-0.64
		c1.76-0.16,3.25-0.24,4.48-0.24c2.23,0,3.34,0.85,3.34,2.55c0,1.64-1.49,2.61-4.48,2.9c-3.69,0.35-7.13,1.9-10.33,4.65
		c-3.19,2.75-4.79,8.17-4.79,16.25l0.44,49.71l-0.62,37.41c0,3.22-1,4.83-2.99,4.83c-0.53,0-1.14-0.18-1.85-0.53
		s-4.73-4.41-12.08-12.17c-7.35-7.76-18.28-19.8-32.78-36.12c-14.5-16.32-24.68-28.02-30.54-35.11c-0.12,1.58-0.18,16.32-0.18,44.21
		c0,8.61,0.37,15.37,1.1,20.26c0.73,4.89,3.02,8.44,6.86,10.63c3.84,2.2,7.31,3.3,10.42,3.3c1.99,0,2.99,0.76,2.99,2.29
		c0,1.76-1.05,2.64-3.16,2.64c-1.35,0-3.05-0.12-5.1-0.35c-3.52-0.47-8-0.7-13.45-0.7c-8.73,0-15.06,0.26-18.98,0.79
		c-2.46,0.29-4.22,0.44-5.27,0.44c-2.29,0-3.43-0.97-3.43-2.9c0-1.41,1.85-2.25,5.54-2.55c6.62-0.53,10.77-2.81,12.44-6.86
		s2.5-9.55,2.5-16.52c0-30.23-0.16-48.72-0.48-55.46c-0.32-6.74-2.43-12.83-6.33-18.28c-3.9-5.45-8.6-8.7-14.11-9.76
		c-2.29-0.41-3.43-1.32-3.43-2.72c0-1.93,1.2-2.9,3.6-2.9c0.58,0,1.44,0.06,2.55,0.18c1.35,0.12,3.78,0.18,7.3,0.18
		C625.13,374.51,632.22,374.6,638.78,374.78z"/>
	<path class="st0" d="M748.55,374.6c2.05,0,6.27,0.16,12.66,0.49c4.86,0.26,8.73,0.39,11.6,0.39l26.98-0.7
		c2.29,0,3.43,0.79,3.43,2.37c0,1.41-1.03,2.23-3.08,2.46c-4.63,0.47-7.72,1.33-9.27,2.59c-1.55,1.26-2.75,4.17-3.6,8.74
		c-0.85,4.57-1.27,14.9-1.27,31c0,18.5,0.29,32.8,0.88,42.9c0.58,10.1,1.77,16.34,3.56,18.71c1.79,2.37,4.76,3.56,8.92,3.56
		c2.87,0,4.31,0.76,4.31,2.29c0,2.05-1.55,3.08-4.66,3.08c-0.88,0-2.17-0.03-3.87-0.09c-11.02-0.76-18.54-1.14-22.59-1.14
		c-8.85,0-15.38,0.26-19.6,0.79c-2.23,0.23-3.81,0.35-4.75,0.35c-2.17,0-3.25-0.85-3.25-2.55c0-1.35,0.91-2.14,2.72-2.37
		c4.98-0.64,8.33-2.04,10.06-4.17c1.73-2.14,2.77-7.28,3.12-15.42c0.35-8.14,0.53-20.8,0.53-37.97c0-18.11-0.32-30.22-0.97-36.34
		c-0.65-6.12-1.71-9.89-3.21-11.29s-4.35-2.29-8.57-2.64c-2.23-0.18-3.34-1.08-3.34-2.72C745.3,375.36,746.38,374.6,748.55,374.6z"
		/>
	<path class="st0" d="M815.7,373.99l28.3,0.88c2.69,0,5.77-0.15,9.23-0.44c5.51-0.41,9.84-0.62,13.01-0.62
		c2.99,0,4.48,0.82,4.48,2.46c0,1.58-1.17,2.43-3.52,2.55c-4.22,0.23-7.37,1.74-9.45,4.53c-2.08,2.78-3.41,8.5-4,17.14
		c-0.59,8.64-0.88,18.15-0.88,28.52c0,16.64,0.79,27.82,2.37,33.53s4.98,10.27,10.2,13.67c5.21,3.4,12.13,5.1,20.74,5.1
		c8.73,0,15.32-1.86,19.78-5.58c4.45-3.72,7.51-9.56,9.18-17.52c1.67-7.96,2.5-22.74,2.5-44.35c0-12.76-1-21.57-2.99-26.43
		c-1.99-4.86-5.39-7.52-10.2-7.99c-3.46-0.35-5.19-1.38-5.19-3.08c0-1.7,1.41-2.55,4.22-2.55c1.35,0,3.6,0.16,6.77,0.48
		c3.28,0.27,6.71,0.4,10.28,0.4c3.28,0,6.94-0.18,10.99-0.53c3.05-0.23,5.16-0.35,6.33-0.35c2.93,0,4.39,0.85,4.39,2.55
		c0,1.35-1.05,2.14-3.16,2.37c-2.93,0.29-5.58,1.66-7.95,4.09c-2.37,2.43-3.9,6.45-4.57,12.04c-0.67,5.6-1.01,19.97-1.01,43.11
		c0,15.24-1.52,26.27-4.57,33.09c-3.05,6.83-8.36,12.13-15.95,15.91c-7.59,3.78-17.04,5.67-28.34,5.67
		c-8.73,0-16.32-0.78-22.76-2.33c-6.45-1.55-11.56-3.94-15.34-7.16c-3.78-3.22-6.5-6.94-8.17-11.15s-2.5-10.42-2.5-18.62l0.35-46.81
		c0-6.56-0.37-11.94-1.1-16.16c-0.73-4.22-1.89-7.01-3.47-8.39s-3.99-2.24-7.21-2.59c-2.05-0.23-3.33-0.54-3.82-0.92
		c-0.5-0.38-0.75-1.01-0.75-1.89C811.92,374.87,813.18,373.99,815.7,373.99z"/>
	<path class="st0" d="M991.03,375.31c1.52,3.63,4.34,9.39,8.45,17.27c4.11,7.88,8.17,15.88,12.19,23.99
		c4.02,8.12,8.55,16.66,13.6,25.62c4.05,7.09,6.34,11.25,6.87,12.48c14.68-32.87,25.79-59.33,33.33-79.37
		c14.07,0,27.05-0.35,38.95-1.05c1.11-0.06,1.94-0.09,2.46-0.09c2.4,0,3.6,0.94,3.6,2.81c0,1.64-0.94,2.46-2.81,2.46
		c-6.68,0-11.06,2.27-13.14,6.81c-2.08,4.54-3.12,15.6-3.12,33.18l-0.09,43.07c0,8.79,1.16,14.94,3.47,18.46
		c2.31,3.52,6.08,5.36,11.29,5.54c2.52,0.06,3.78,0.91,3.78,2.55c0,0.88-0.53,1.61-1.58,2.2l-24.66-0.18
		c-7.55,0-17.88,0.29-30.98,0.88c-1.11-0.76-1.67-1.58-1.67-2.46c0-1.35,1.51-2.25,4.55-2.72c3.09-0.53,5.32-1.29,6.68-2.29
		s2.4-2.84,3.1-5.54c0.7-2.7,1.05-6.66,1.05-11.88l0.35-39.32c0-20.12,0.03-31.7,0.09-34.75c-15.91,37.03-25.77,60.67-29.57,70.93
		l-8.86,23.82c-1,2.52-2,3.78-2.99,3.78c-1.06,0-2.32-1.55-3.78-4.66c-4.28-9.02-19.56-38.82-45.84-89.38
		c-0.29,14.55-0.44,34.17-0.44,58.86c0,13.02,0.73,21.25,2.2,24.68c1.46,3.43,5.57,5.44,12.3,6.03c2.23,0.23,3.34,1.05,3.34,2.46
		c0,1.52-0.91,2.29-2.72,2.29c-0.65,0-1.35-0.03-2.11-0.1c-7.03-0.52-12.07-0.78-15.12-0.78c-8.32,0-14.62,0.29-18.9,0.88
		c-0.82,0.12-1.44,0.18-1.85,0.18c-2.05,0-3.08-0.85-3.08-2.55c0-0.82,0.25-1.39,0.75-1.71c0.5-0.32,1.83-0.72,4-1.19
		c5.62-1.05,9.3-3.08,11.03-6.07c1.73-2.99,2.59-7.89,2.59-14.69l0.44-50.23c0-11.43-0.29-19-0.88-22.69
		c-0.59-3.69-2.02-6.54-4.31-8.53s-6.01-3.49-11.16-4.49c-1.93-0.41-2.9-1.38-2.9-2.9c0-1.64,1.05-2.46,3.16-2.46
		c0.47,0,1.11,0.03,1.93,0.1C960.01,375.05,972.34,375.31,991.03,375.31z"/>
</g>
</svg>
